<?xml version="1.0" encoding="utf-8"?>
<!-- Svg Vector Icons : http://www.onlinewebfonts.com/icon -->
<!DOCTYPE svg PUBLIC "-//W3C//DTD SVG 1.1//EN" "http://www.w3.org/Graphics/SVG/1.1/DTD/svg11.dtd">
<svg version="1.1" xmlns="http://www.w3.org/2000/svg" xmlns:xlink="http://www.w3.org/1999/xlink" x="0px" y="0px" viewBox="0 0 256 256" enable-background="new 0 0 256 256" xml:space="preserve">
<metadata> Svg Vector Icons : http://www.onlinewebfonts.com/icon </metadata>
<g><g><path fill="#000000" d="M60.6,94.3c0-4.6,1.7-8.5,5-11.8c3.3-3.3,7.3-5,11.8-5c4.6,0,8.5,1.7,11.8,5c3.3,3.3,5,7.3,5,11.8c0,4.6-1.7,8.5-5,11.8c-3.3,3.3-7.3,5-11.8,5c-4.6,0-8.5-1.7-11.8-5C62.2,102.8,60.6,98.9,60.6,94.3L60.6,94.3z M215.2,229.1H40.8c-5.4,0-10.6-1.3-15.4-4.1c-4.8-2.7-8.6-6.5-11.3-11.3c-2.7-4.8-4.1-10-4.1-15.4V57.7c0-8.4,3-15.7,9.1-21.7c6-6,13.3-9.1,21.7-9.1h174.4c8.4,0,15.7,3,21.7,9.1c6,6,9.1,13.3,9.1,21.7v140.6c0,8.4-3,15.7-9.1,21.7C230.9,226.1,223.6,229.1,215.2,229.1L215.2,229.1z M40.8,43.7c-3.9,0-7.2,1.3-9.9,4.1c-2.7,2.7-4.1,6-4.1,9.9v140.7c0,3.9,1.3,7.2,4.1,9.9c2.7,2.7,6,4.1,9.9,4.1h174.4c3.9,0,7.2-1.3,9.9-4.1s4.1-6,4.1-9.9V57.7c0-3.9-1.3-7.2-4.1-9.9c-2.7-2.7-6-4.1-9.9-4.1L40.8,43.7L40.8,43.7z M52.1,195.7h-1.1c-0.2,0-0.4,0-0.6-0.1s-0.6-0.1-0.9-0.1c-2.1-0.7-3.7-2.1-4.7-4.2c-1.1-2.1-1.3-4.2-0.8-6.3c0.4-1.2,0.9-2.8,1.7-4.6c0.8-1.9,2.1-4.9,3.9-9.1c1.9-4.2,4.1-8.2,6.7-11.8c2.6-3.7,5.7-7.4,9.1-11.1c3.4-3.7,7.5-6.6,12.3-8.8c4.7-2.2,9.7-3.2,14.8-3c6.1,0.2,14.2,1.8,24.2,4.7c4.2,1.2,7.3,2.1,9.3,2.6c2,0.5,5.1,1.1,9.3,1.6c4.2,0.5,7.6,0.4,10.3-0.5c1.1-0.2,2-0.6,2.9-1.2c0.9-0.6,1.7-1.4,2.4-2.2c0.7-0.9,1.4-2.1,2.1-3.7c0.7-1.6,1.3-3.2,1.9-4.9c0.5-1.7,1.2-3.8,2.1-6.5c1.4-4.6,2.6-8.1,3.6-10.7c1-2.6,2.7-6,5.3-10.3c2.6-4.3,5.3-7.6,8.2-10c2.9-2.4,6.9-4.5,12-6.5c5.1-1.9,10.8-2.9,17.1-2.9c2.3,0,4.3,0.8,5.9,2.5c1.7,1.7,2.5,3.6,2.5,5.9c0,2.3-0.8,4.3-2.5,5.9c-1.7,1.7-3.6,2.5-5.9,2.5c-4.9,0-9,0.6-12.3,1.7c-3.3,1.1-6,3.2-8.2,6.1c-2.2,2.9-3.9,5.8-5.1,8.6c-1.2,2.8-2.7,6.8-4.5,12.1c-0.9,2.8-1.6,5-2.1,6.5c-0.5,1.5-1.3,3.5-2.4,6.1c-1.1,2.6-2.1,4.6-3.3,6.2c-1.2,1.6-2.5,3.3-4.1,5c-1.6,1.8-3.5,3.2-5.7,4.2c-2.2,1.1-4.6,1.8-7.2,2.1c-4.6,0.4-8,0.6-10.4,0.8c-2.4,0.2-5.5-0.1-9.5-0.8c-3.9-0.7-6.9-1.3-8.7-1.9c-1.8-0.5-4.4-1.3-7.8-2.4c-2.3-0.5-4-1-5.1-1.3c-1.1-0.3-2.7-0.7-4.6-1.2c-1.9-0.4-3.7-0.8-5.4-1.1s-3.3-0.4-4.9-0.4h-0.3c-3.9,0-7.6,1.3-11.3,4.1s-6.8,6.2-9.5,10.4c-2.6,4.2-4.8,8.2-6.6,11.8c-1.8,3.7-3.2,7-4.2,10C59,193.6,56.4,195.7,52.1,195.7L52.1,195.7z"/></g></g>
</svg>